<svg width="50" height="50" viewBox="0 0 50 50" fill="none" xmlns="http://www.w3.org/2000/svg">
<rect width="50" height="50" fill="white"/>
<path d="M13.3047 43C8.10784 43 4.00496 39.6502 4 35.138H10.5219C10.4761 35.8957 10.4302 36.9696 10.4302 37.8636C10.4302 41.2174 11.9356 42.3799 13.6689 42.3799C15.1743 42.3799 16.9076 41.4409 16.9076 37.9971C16.9076 34.3175 14.2208 31.6859 11.3476 29.0026C8.10887 26.0058 4.68805 22.9204 4.68805 18.2691C4.68805 13.6628 9.11246 11.1143 13.6731 11.1143C18.5993 11.1143 22.3857 14.3796 22.3857 18.6725H16.2696C16.3155 18.002 16.3614 17.108 16.3614 16.3025C16.3614 12.9037 15.0839 11.7412 13.3965 11.7412C11.8911 11.7412 10.4316 12.5902 10.4316 15.9891C10.4316 19.5215 13.0796 22.2498 15.8596 24.9332C19.0969 28.02 22.6095 31.1054 22.6095 35.3983C22.6095 40.2281 18.0947 43 13.3047 43Z" fill="black"/>
<path d="M32.448 33.5189V42.553H26.2944V7H32.4521V32.3565L43.4443 18.851H44.352L38.4681 26.0957L47 42.5516H40.4767L34.4551 31.0141L32.448 33.5189Z" fill="black"/>
</svg>
