<svg width="156" height="48" viewBox="0 0 156 48" fill="none" xmlns="http://www.w3.org/2000/svg">
<g clip-path="url(#clip0_1_163)">
<path fill-rule="evenodd" clip-rule="evenodd" d="M50.2763 24.8125C49.3783 24.623 46.7029 23.9528 44.1056 25.7109C44.103 25.7098 44.1002 25.7088 44.0975 25.708C43.8426 25.8732 43.5776 26.022 43.304 26.1537C42.4806 26.5337 41.585 26.7304 40.6786 26.7304C39.7722 26.7304 38.8765 26.5337 38.0531 26.1537C37.2508 25.7775 36.5267 25.2524 35.9191 24.6062C35.307 23.9532 34.8171 23.1952 34.4727 22.3684C34.1206 21.5237 33.9394 20.6174 33.9394 19.702C33.9394 18.7866 34.1206 17.8802 34.4727 17.0356C34.8125 16.2063 35.3029 15.4475 35.9191 14.7978C36.5296 14.1585 37.2532 13.6384 38.053 13.2638C38.8764 12.8838 39.772 12.6871 40.6784 12.6871C41.5848 12.6871 42.4805 12.8838 43.3039 13.2638C44.1038 13.6383 44.8276 14.1585 45.4383 14.7978C46.0543 15.4476 46.5446 16.2064 46.8843 17.0356C47.2366 17.8802 47.4179 18.7865 47.4179 19.702C47.4179 20.6174 47.2366 21.5238 46.8843 22.3684C46.8354 22.484 46.7784 22.5938 46.7243 22.7053C48.1076 22.5767 49.5022 22.6482 50.8651 22.9175C51.1958 21.8756 51.3618 20.7881 51.3571 19.6947C51.3644 18.2672 51.077 16.8537 50.513 15.543C49.4248 12.9779 47.3878 10.9354 44.8296 9.8441C43.5144 9.2772 42.0962 8.98971 40.6647 8.99977C39.2424 8.99162 37.8339 9.27911 36.528 9.8441C33.9694 10.9351 31.9321 12.9779 30.8442 15.5435C30.28 16.8541 29.9926 18.2677 30 19.6952C29.9897 21.1273 30.2772 22.546 30.8442 23.8605C31.9384 26.4185 33.9742 28.4548 36.528 29.5456C37.8337 30.111 39.2423 30.3986 40.6645 30.3901C42.0961 30.4005 43.5142 30.1129 44.8293 29.5456C45.1999 29.3822 45.5617 29.1993 45.9131 28.9977C45.953 28.9817 46 28.964 46.0341 28.948C46.8487 28.5638 47.3839 28.3401 48.3199 28.3714C50.1403 28.4319 50.5512 29.322 50.6517 30.0457H55.1957C55.1957 28.8014 54.1363 25.6268 50.2763 24.8125ZM70.16 14.7519H66.345V23.3614H66.3483C66.3424 24.2125 66.001 25.0266 65.3987 25.6263C64.7964 26.2259 63.982 26.5625 63.1332 26.5625C62.2844 26.5625 61.4701 26.2259 60.8678 25.6263C60.2655 25.0266 59.9241 24.2125 59.9181 23.3614H59.9219V14.7519H56.1058V23.3614C56.1058 25.2302 56.8462 27.0224 58.164 28.3438C59.4819 29.6652 61.2694 30.4076 63.1331 30.4076C64.9969 30.4076 66.7844 29.6652 68.1022 28.3438C69.4201 27.0224 70.1605 25.2302 70.1605 23.3614V14.7519H70.16ZM122.184 14.7519V19.8902H122.185C122.183 20.3411 122.086 20.7864 121.9 21.1968C121.714 21.6071 121.443 21.9733 121.105 22.271L121.113 22.272C123.129 22.5729 124.631 23.9876 124.652 24.0078C125.525 22.8134 125.997 21.3713 125.998 19.8902H126V14.7519H122.184H122.184ZM126 30.1196C126 30.113 126 30.1068 126 30.1004V30.0726H125.999C125.993 29.12 125.794 28.1785 125.412 27.3062C125.03 26.4339 124.474 25.6493 123.778 25.0007L123.782 24.997C123.19 24.4612 121.886 23.2026 118.972 23.0978C117.201 23.0337 115.763 21.6623 115.758 19.8904H115.761V14.7519H111.945V19.8696C111.945 19.8735 111.944 19.8776 111.944 19.8816C111.947 21.7102 112.661 23.4657 113.933 24.7759C115.205 26.086 116.936 26.8478 118.759 26.8997C118.803 26.9014 119.003 26.9083 119.018 26.9078C119.853 26.9185 120.651 27.2555 121.242 27.8471C121.834 28.4387 122.171 29.2382 122.183 30.0755V31.9644H122.187C122.187 31.9664 122.187 31.9685 122.187 31.9706C122.181 32.8217 121.84 33.6358 121.237 34.2355C120.635 34.8351 119.821 35.1717 118.972 35.1717C118.123 35.1717 117.309 34.8351 116.706 34.2355C116.104 33.6358 115.763 32.8217 115.757 31.9706C115.757 31.964 115.759 30.9981 115.759 30.992C115.759 30.992 111.945 31.0047 111.944 31.0113C111.487 35.7614 115.091 38.9998 118.972 38.9998C120.834 39.0021 122.62 38.2629 123.938 36.9448C125.256 35.6267 125.998 33.8376 126 31.9711C126 31.9683 126 31.9654 126 31.9626V30.1345C126 30.1297 126 30.1246 126 30.1196ZM84.9455 32.6919C84.7758 33.2624 84.5032 33.7968 84.1411 34.2686C83.7745 34.7391 83.3123 35.1261 82.7853 35.4041C82.1744 35.695 81.5065 35.8459 80.8302 35.8459C80.1539 35.8459 79.486 35.695 78.8751 35.4041C78.3482 35.1262 77.8863 34.7392 77.52 34.2686C77.1577 33.797 76.8852 33.2625 76.716 32.6919C76.549 32.1438 76.4607 31.5747 76.4538 31.0016H72.604C72.5978 32.1024 72.8167 33.1928 73.2471 34.2055C73.6545 35.1609 74.2495 36.0244 74.9965 36.7445C75.753 37.4623 76.6423 38.0249 77.6141 38.4006C79.6841 39.1995 81.9761 39.1995 84.0461 38.4006C85.018 38.0249 85.9072 37.4623 86.6637 36.7445C87.4106 36.0241 88.0057 35.1608 88.4136 34.2055C88.8434 33.1927 89.0622 32.1024 89.0565 31.0016H85.2077C85.2003 31.5746 85.112 32.1437 84.9455 32.6919ZM90.8706 14.8588C85.2138 14.7899 84.8635 20.0762 85.1005 21.1701H85.0845C85.1647 21.5469 85.2076 21.9307 85.2125 22.3159C85.2109 22.9147 85.1207 23.51 84.9448 24.0822C84.7752 24.6527 84.5026 25.187 84.1405 25.6588C83.7739 26.1293 83.3117 26.5164 82.7847 26.7944C82.1737 27.0852 81.5058 27.236 80.8295 27.236C80.1532 27.236 79.4854 27.0852 78.8744 26.7944C78.3478 26.5164 77.8861 26.1293 77.52 25.6588C77.1577 25.1872 76.8851 24.6528 76.716 24.0822C76.5398 23.5098 76.4495 22.9143 76.448 22.3153C76.4489 21.7215 76.5393 21.1313 76.716 20.5647C76.888 20.0002 77.1603 19.4716 77.52 19.0044C77.8848 18.5361 78.3476 18.1538 78.8759 17.8846C79.4898 17.6044 80.1565 17.4594 80.831 17.4594C81.5055 17.4594 82.1722 17.6044 82.7861 17.8846C83.2003 18.1052 83.5734 18.3957 83.889 18.7435C83.9013 18.6894 83.905 18.6322 83.9184 18.5784C84.1004 17.7859 84.4441 17.0396 84.9277 16.3867C85.119 16.1365 85.3353 15.9066 85.5731 15.7005C85.0926 15.3921 84.5808 15.1357 84.0463 14.9356C81.9687 14.1787 79.6918 14.1787 77.6143 14.9356C76.6431 15.2904 75.753 15.8373 74.9967 16.5437C74.2506 17.2525 73.6554 18.1055 73.2472 19.0512C72.8053 20.0816 72.585 21.1938 72.6007 22.3153C72.586 23.4418 72.8061 24.559 73.2471 25.5952C73.6545 26.5505 74.2495 27.4139 74.9965 28.134C75.753 28.8518 76.6423 29.4144 77.6141 29.7901C79.684 30.5892 81.9762 30.5892 84.0461 29.7901C85.018 29.4144 85.9072 28.8519 86.6637 28.134C87.4106 27.4137 88.0057 26.5504 88.4136 25.5952C88.8542 24.5588 89.0744 23.4418 89.0602 22.3153C89.0602 22.1085 89.045 21.9099 89.032 21.7095L89.0546 21.7127V21.5029C89.0556 21.1119 89.0872 20.7217 89.1491 20.3358C89.2078 19.95 89.3305 19.5768 89.512 19.2317C89.6919 18.8942 89.9586 18.6111 90.2845 18.4119C90.6597 18.2037 91.0831 18.0986 91.5119 18.1071H93.3111V14.8567L90.8706 14.8588ZM109.564 18.9752C109.239 18.0283 108.719 17.1604 108.039 16.4276C107.392 15.7487 106.603 15.2226 105.728 14.8875C104.799 14.5346 103.813 14.3586 102.82 14.3685C101.739 14.359 100.667 14.5565 99.66 14.9504C98.7074 15.3172 97.8411 15.8783 97.1159 16.5981C96.3907 17.318 95.8224 18.1809 95.4471 19.1324C95.0274 20.1871 94.819 21.3144 94.8339 22.4499C94.8149 23.5859 95.0234 24.7142 95.4471 25.768C95.8288 26.7038 96.4079 27.5457 97.1447 28.236C97.8878 28.9196 98.7588 29.4488 99.7071 29.793C100.745 30.169 101.842 30.3554 102.945 30.3434C105.081 30.3768 107.153 29.6121 108.757 28.1982L106.699 25.7619C106.37 26.1002 105.474 26.6516 105.304 26.7426C104.654 27.0888 103.857 27.2617 102.914 27.2614C102.377 27.263 101.845 27.167 101.342 26.9781C100.852 26.7976 100.395 26.5374 99.9901 26.2081C99.5957 25.8887 99.2696 25.4929 99.0312 25.0443C98.7866 24.582 98.642 24.0731 98.6069 23.5509C98.5249 22.6514 98.5249 21.7462 98.6069 20.8467C98.6355 20.3432 98.7659 19.8508 98.9902 19.3995C99.2145 18.9481 99.5279 18.5471 99.9115 18.221C100.711 17.5343 101.736 17.1697 102.789 17.1976C103.333 17.1853 103.873 17.2872 104.376 17.4967C104.796 17.6733 105.172 17.9411 105.476 18.281C105.781 18.6209 106.006 19.0243 106.136 19.4621C106.273 19.9102 106.342 20.3767 106.34 20.8456H99.8986V23.5506H110.082C110.103 23.3836 110.114 23.2156 110.114 23.0473V22.5447C110.138 21.3319 109.952 20.1242 109.564 18.9752Z" fill="black"/>
</g>
<defs>
<clipPath id="clip0_1_163">
<rect width="96" height="30" fill="white" transform="translate(30 9)"/>
</clipPath>
</defs>
</svg>
