<svg width="184" height="48" viewBox="0 0 184 48" fill="none" xmlns="http://www.w3.org/2000/svg">
<g clip-path="url(#clip0_1_148)">
<path d="M147.438 21.1862C148.652 21.6945 149.716 22.3747 150.615 23.2196C151.515 24.0716 152.222 25.0597 152.729 26.1981C153.236 27.3366 153.486 28.5323 153.486 29.7924C153.486 31.0812 153.236 32.2912 152.729 33.4296C152.222 34.5681 151.522 35.5633 150.615 36.4082C149.716 37.2602 148.652 37.9261 147.438 38.4201C146.224 38.9141 144.903 39.1576 143.482 39.1576C142.061 39.1576 140.74 38.9141 139.526 38.4201C138.313 37.9261 137.249 37.253 136.349 36.4082C135.449 35.5561 134.742 34.5681 134.235 33.4296C133.728 32.2912 133.479 31.0812 133.479 29.7924C133.479 28.5323 133.728 27.3366 134.235 26.1981C134.742 25.0597 135.442 24.0645 136.349 23.2196C137.249 22.3676 138.313 21.6945 139.526 21.1862C140.74 20.6778 142.061 20.4272 143.482 20.4272C144.903 20.4272 146.217 20.685 147.438 21.1862ZM145.981 37.8831C146.581 37.3747 147.024 36.7089 147.317 35.8926C147.602 35.0693 147.781 34.1241 147.852 33.0573C147.924 31.9905 147.952 30.9093 147.952 29.8067C147.952 28.7113 147.916 27.6373 147.852 26.5776C147.781 25.5251 147.609 24.58 147.317 23.7638C147.031 22.9404 146.588 22.2745 145.981 21.7661C145.382 21.2578 144.546 21.0072 143.482 21.0072C142.418 21.0072 141.583 21.2578 140.983 21.7661C140.383 22.2745 139.941 22.9404 139.648 23.7638C139.362 24.5872 139.184 25.5251 139.112 26.5776C139.041 27.6301 139.012 28.7113 139.012 29.8067C139.012 30.9022 139.048 31.9833 139.112 33.0573C139.184 34.1241 139.355 35.0693 139.648 35.8926C139.933 36.716 140.376 37.3819 140.983 37.8831C141.583 38.3914 142.418 38.642 143.482 38.642C144.546 38.642 145.382 38.3843 145.981 37.8831Z" fill="black"/>
<path d="M101.24 30.4083C99.5617 30.4083 98.205 31.7687 98.205 33.4513C98.205 34.7973 99.0761 35.9358 100.283 36.3367C100.297 36.3367 100.304 36.3439 100.311 36.3439C100.49 36.4012 100.668 36.437 100.854 36.4656C101.19 36.5229 101.304 36.6947 101.283 36.9238C101.233 37.2747 100.833 37.7401 100.333 38.0265C99.5831 38.4346 98.6549 38.6422 97.5624 38.6422C96.3342 38.6422 95.3774 38.3845 94.692 37.8618C94.0065 37.3391 93.4924 36.6732 93.1353 35.8642C92.7783 35.0551 92.5641 34.1529 92.4784 33.1506C92.3927 32.1482 92.357 31.1529 92.357 30.172V28.3248H104.453C104.453 26.9286 104.21 25.7257 103.717 24.7305C103.225 23.7281 102.596 22.9191 101.832 22.2818C101.068 21.6518 100.204 21.1864 99.2475 20.8856C98.2907 20.5849 97.3339 20.4346 96.3771 20.4346C95.0347 20.4346 93.7851 20.6995 92.6284 21.2365C91.4645 21.7735 90.4577 22.468 89.5937 23.3343C88.7297 24.2007 88.0585 25.1887 87.5658 26.3129C87.0732 27.437 86.8304 28.5897 86.8304 29.7639C86.8304 31.246 87.0874 32.5634 87.6087 33.7305C88.1299 34.8976 88.844 35.8856 89.7579 36.6876C90.6719 37.4966 91.743 38.1124 92.9783 38.5348C94.2064 38.9572 95.5345 39.172 96.9555 39.172C98.155 39.172 99.1833 39.0002 100.033 38.6565C100.883 38.3129 101.59 37.8904 102.168 37.3821C102.539 37.0599 102.846 36.709 103.118 36.351C103.125 36.3367 103.139 36.3224 103.146 36.3081C103.189 36.2508 103.232 36.1935 103.275 36.1362C103.432 35.9143 103.582 35.6708 103.696 35.4131C103.703 35.4059 103.703 35.3916 103.703 35.3845C103.81 35.1768 103.903 34.9692 103.982 34.7759C103.996 34.7401 104.017 34.7043 104.032 34.6685C104.089 34.5396 104.132 34.4035 104.174 34.2603C104.182 34.2317 104.196 34.2031 104.203 34.1744C104.203 34.1673 104.196 34.1673 104.196 34.1601C104.203 34.1458 104.203 34.1243 104.203 34.11C104.203 34.0957 104.21 34.0885 104.217 34.0742H104.21C104.253 33.8737 104.281 33.6661 104.281 33.4513C104.281 31.7687 102.918 30.4083 101.24 30.4083ZM92.507 25.5038C92.5713 24.7234 92.7355 23.993 92.9783 23.3272C93.221 22.6541 93.5995 22.1028 94.1064 21.6589C94.6134 21.2222 95.3274 21.0002 96.2557 21.0002C96.9126 21.0002 97.4267 21.1506 97.7909 21.4513C98.1622 21.752 98.4264 22.1243 98.5906 22.5611C98.7548 22.9978 98.8477 23.4417 98.8762 23.8785C98.9048 24.3152 98.9191 24.6876 98.9191 24.9883V27.7448H92.357C92.3927 27.036 92.4356 26.2842 92.507 25.5038Z" fill="black"/>
<path d="M130.358 38.0622V21.0073H124.11V21.5801H125.353V38.0622H124.11V38.6422H131.601V38.0622H130.358Z" fill="black"/>
<path d="M126.945 15.1289C126.945 15.1361 126.945 15.1361 126.945 15.1289C126.952 15.1361 126.959 15.1361 126.974 15.1361C127.152 15.1934 127.331 15.2292 127.516 15.2578C128.216 15.3724 127.988 16.0311 127.431 16.5323C127.309 16.6397 127.424 16.833 127.573 16.7757C128.445 16.4821 129.98 15.3509 130.687 13.4607C130.744 13.3318 130.787 13.1957 130.829 13.0525C130.837 13.0239 130.851 12.9953 130.858 12.9666C130.858 12.9595 130.851 12.9595 130.851 12.9523C130.908 12.7232 130.937 12.4798 130.937 12.2363C130.937 10.5537 129.58 9.19336 127.902 9.19336C126.224 9.19336 124.867 10.5537 124.867 12.2363C124.867 13.5895 125.738 14.728 126.945 15.1289Z" fill="black"/>
<path d="M49.6504 38.0621L40.2607 25.9403L39.868 25.4463L36.4121 28.611H36.205V9H30V9.57279H31.1996V38.0621H30V38.642H37.2404V38.0621H36.205V29.1838H36.4121L43.3382 38.0621H40.3893V38.642H51.2498V38.0621H49.6504Z" fill="black"/>
<path d="M44.2808 26.9712C44.2737 26.9712 44.2808 26.9712 44.2808 26.9712C44.2879 26.9784 44.2951 26.9784 44.3094 26.9784C44.4879 27.0356 44.6664 27.0714 44.852 27.1001C45.5518 27.2146 45.3233 27.8734 44.7663 28.3745C44.645 28.4819 44.7592 28.6753 44.9092 28.618C45.7803 28.3244 47.3155 27.1932 48.0224 25.3029C48.0795 25.1741 48.1223 25.038 48.1652 24.8948C48.1723 24.8662 48.1866 24.8376 48.1937 24.8089C48.1937 24.8018 48.1866 24.8018 48.1866 24.7946C48.2437 24.5655 48.2723 24.322 48.2723 24.0786C48.2723 22.396 46.9156 21.0356 45.2376 21.0356C43.5596 21.0356 42.2029 22.396 42.2029 24.0786C42.2029 25.4318 43.0741 26.5703 44.2808 26.9712Z" fill="black"/>
<path d="M67.6727 38.062C67.6727 38.0334 67.6727 26.2267 67.6727 26.2267C67.6727 25.074 67.4728 24.1217 67.0801 23.3699C66.6802 22.6181 66.1518 22.0167 65.4806 21.5799C64.8094 21.1432 64.0168 20.8425 63.1029 20.6778C63.0529 20.6706 63.0029 20.6635 62.9529 20.6563V20.6492C59.547 19.926 57.4548 20.4272 56.5908 20.6563C55.6412 20.9141 54.0917 21.6301 53.1349 23.148C53.0492 23.2625 52.7564 23.7852 52.6351 24.2864C52.2566 25.926 53.342 27.5441 54.9842 27.8878C56.6265 28.2315 58.2331 27.179 58.5759 25.5322C58.8472 24.2148 58.2331 22.9188 57.1335 22.2816C57.1192 22.2745 57.1121 22.2745 57.1049 22.2673C56.9479 22.1742 56.7765 22.1026 56.598 22.0382C56.1124 21.852 56.1767 21.3866 56.5766 21.1503C57.0264 20.8854 58.3545 20.6134 60.4752 20.8353C61.2249 20.9141 61.839 21.2506 62.1461 21.7589C62.5031 22.3604 62.6816 23.0334 62.6816 23.7709V29.6348L58.8686 29.642C58.0832 29.642 56.5337 29.7136 55.3198 30.0931C54.6701 30.3007 54.106 30.6301 53.599 30.9952C53.092 31.3675 52.685 31.8186 52.3709 32.3484C52.0567 32.8854 51.8996 33.7088 51.8996 34.5036C51.8996 35.2697 52.0781 36.0644 52.4351 36.6014C52.7921 37.1384 53.3348 37.5537 53.8989 37.883C55.0128 38.5418 57.262 38.6348 57.9189 38.6348C58.0403 38.6348 58.1617 38.6348 58.2902 38.6348H64.8308H66.4731H68.8509V38.0549H67.6727V38.062ZM62.6673 38.0334C62.653 38.0334 60.4038 38.0334 60.0468 38.0334C59.4184 38.0334 58.6758 37.9188 58.3188 37.6325C57.9618 37.3461 57.6976 36.9952 57.5191 36.5871C57.3406 36.179 57.2335 35.7494 57.1906 35.3126C57.1478 34.8759 57.1264 34.4893 57.1264 34.1599C57.1264 33.3365 57.2549 32.1193 57.5191 31.6038C57.5476 31.5537 57.5762 31.4964 57.6119 31.4391C58.0903 30.6659 58.9686 30.2219 59.8826 30.2219H62.6673V38.0334Z" fill="black"/>
<path d="M122.511 24.2936C122.397 23.7853 122.097 23.2697 122.011 23.1552C121.054 21.6373 119.405 20.8211 118.555 20.6635C116.085 20.2053 114.057 20.5561 112.878 21.0072H106.973V21.58H108.137V38.0621H106.973V38.6349H114.871V38.0621H113.136L113.057 21.4654C114.592 20.8282 117.256 20.7137 118.562 21.1504C119.005 21.2936 119.026 21.8521 118.541 22.0382C118.362 22.1027 118.191 22.1743 118.034 22.2674C118.027 22.2745 118.012 22.2745 118.005 22.2817C116.906 22.9261 116.284 24.2148 116.563 25.5323C116.906 27.179 118.512 28.2316 120.155 27.8879C121.804 27.5514 122.889 25.9261 122.511 24.2936Z" fill="black"/>
<path d="M79.0545 25.5394C79.3972 27.1861 81.0038 28.2386 82.6461 27.895C84.2884 27.5513 85.3737 25.926 84.9953 24.2935C84.881 23.7852 84.5811 23.2697 84.4954 23.1551C83.5386 21.6372 82.1106 20.8783 81.0395 20.6635C79.6257 20.3842 78.3547 20.3842 77.3051 20.5203V8.89258H76.8409C76.8409 8.89258 76.1912 12.2291 72.3139 12.2291V21.5155C71.1072 21.6372 69.8576 21.5728 69.0865 21.315C69.0651 21.3079 69.0508 21.2935 69.0294 21.2864V21.7876C69.0508 21.7947 69.0722 21.8019 69.0936 21.8019C70.2789 22.0382 71.3643 22.074 72.3068 22.0024V34.2386C72.3068 34.7327 72.3354 35.2697 72.3853 35.8425C72.4425 36.4153 72.6495 36.9522 73.0208 37.4463C73.3921 37.9403 73.9634 38.3484 74.7417 38.6778C75.52 39.0071 76.6196 39.1718 78.0405 39.1718C78.5618 39.1718 79.1044 39.1217 79.6828 39.0286C80.2541 38.9284 80.7967 38.7351 81.3037 38.4343C81.8107 38.1336 82.2605 37.704 82.6532 37.1384C83.0459 36.5799 83.3316 35.8281 83.4958 34.8974L82.8817 34.7756C82.7746 35.1837 82.6318 35.6133 82.4533 36.0501C82.2748 36.4868 82.0463 36.8806 81.775 37.2243C81.5036 37.568 81.1823 37.8472 80.811 38.0692C80.4397 38.2911 79.997 38.3985 79.4758 38.3985C79.0116 38.3985 78.6332 38.3198 78.3476 38.1551C78.062 37.9904 77.8406 37.7613 77.6907 37.4749C77.5407 37.1885 77.4407 36.8663 77.3836 36.5083C77.3265 36.1503 77.3051 35.7709 77.3051 35.3556V21.0215C78.6617 20.821 80.1684 20.8639 81.0538 21.1575C81.4965 21.3007 81.5179 21.8592 81.0324 22.0453C80.8538 22.1098 80.6825 22.1814 80.5254 22.2744C80.5182 22.2816 80.504 22.2816 80.4968 22.2888C79.4043 22.926 78.7831 24.2219 79.0545 25.5394Z" fill="black"/>
</g>
<defs>
<clipPath id="clip0_1_148">
<rect width="124" height="30" fill="white" transform="translate(30 9)"/>
</clipPath>
</defs>
</svg>
