<svg width="16" height="18" viewBox="0 0 16 18" fill="none" xmlns="http://www.w3.org/2000/svg">
<g clip-path="url(#clip0_118_2)">
<path d="M8.00356 4.95684C5.73214 4.95684 3.89999 6.76035 3.89999 8.99629C3.89999 11.2322 5.73214 13.0357 8.00356 13.0357C10.275 13.0357 12.1071 11.2322 12.1071 8.99629C12.1071 6.76035 10.275 4.95684 8.00356 4.95684ZM8.00356 11.6225C6.53571 11.6225 5.33571 10.4447 5.33571 8.99629C5.33571 7.54785 6.53214 6.37012 8.00356 6.37012C9.47499 6.37012 10.6714 7.54785 10.6714 8.99629C10.6714 10.4447 9.47142 11.6225 8.00356 11.6225ZM13.2321 4.7916C13.2321 5.31543 12.8036 5.73379 12.275 5.73379C11.7429 5.73379 11.3179 5.31191 11.3179 4.7916C11.3179 4.27129 11.7464 3.84941 12.275 3.84941C12.8036 3.84941 13.2321 4.27129 13.2321 4.7916ZM15.95 5.74785C15.8893 4.48574 15.5964 3.36777 14.6571 2.44668C13.7214 1.52559 12.5857 1.2373 11.3036 1.17402C9.98214 1.1002 6.02142 1.1002 4.69999 1.17402C3.42142 1.23379 2.28571 1.52207 1.34642 2.44316C0.407136 3.36426 0.11785 4.48223 0.0535644 5.74434C-0.0214355 7.04512 -0.0214355 10.9439 0.0535644 12.2447C0.114279 13.5068 0.407136 14.6248 1.34642 15.5459C2.28571 16.467 3.41785 16.7553 4.69999 16.8186C6.02142 16.8924 9.98214 16.8924 11.3036 16.8186C12.5857 16.7588 13.7214 16.4705 14.6571 15.5459C15.5928 14.6248 15.8857 13.5068 15.95 12.2447C16.025 10.9439 16.025 7.04863 15.95 5.74785ZM14.2428 13.6404C13.9643 14.3295 13.425 14.8604 12.7214 15.1381C11.6679 15.5494 9.16785 15.4545 8.00356 15.4545C6.83928 15.4545 4.33571 15.5459 3.28571 15.1381C2.58571 14.8639 2.04642 14.333 1.76428 13.6404C1.34642 12.6033 1.44285 10.1424 1.44285 8.99629C1.44285 7.8502 1.34999 5.38574 1.76428 4.35215C2.04285 3.66309 2.58214 3.13223 3.28571 2.85449C4.33928 2.44316 6.83928 2.53809 8.00356 2.53809C9.16785 2.53809 11.6714 2.44668 12.7214 2.85449C13.4214 3.12871 13.9607 3.65957 14.2428 4.35215C14.6607 5.38926 14.5643 7.8502 14.5643 8.99629C14.5643 10.1424 14.6607 12.6068 14.2428 13.6404Z" fill="black"/>
</g>
<defs>
<clipPath id="clip0_118_2">
<rect width="16" height="18" fill="white"/>
</clipPath>
</defs>
</svg>
